<svg xmlns="http://www.w3.org/2000/svg" xmlns:xlink="http://www.w3.org/1999/xlink" version="1.1"
	style="width: 100%;" viewBox="0 0 1000 1000" xml:space="preserve">
<desc>Created with Fabric.js 3.5.0</desc>
<defs>
</defs>
<rect x="0" y="0" width="100%" height="100%" fill="rgba(255,255,255,0)"/>
<g transform="matrix(1.0022 0 0 1.0896 499.938 500)" id="566568">
<g style="">
		<g transform="matrix(1.1331 0 0 1.1331 -36.5384 232.1991)" id="340243">
<path style="stroke: none; stroke-width: 1; stroke-dasharray: none; stroke-linecap: butt; stroke-dashoffset: 0; stroke-linejoin: miter; stroke-miterlimit: 4; is-custom-font: none; font-file-url: none; fill: rgb(63,61,86); fill-rule: nonzero; opacity: 1;" transform=" translate(-567.75, -654.9253)" d="M 803.25 740.67528 q -36.47625 -5.71034 -70.14288 -9.71417 L 741.75 713.67528 c -3 -1 -16 9 -16 9 l 11 -50 c -15 2 -22 53 -22 53 l -17 -17 l 8.36835 19.24713 c -68.68128 -7.21667 -127.94678 -9.46881 -177.76581 -8.95227 L 535.75 704.17528 c -3 -1 -16 9 -16 9 l 11 -50 c -15 2 -22 53 -22 53 l -17 -17 l 8.8634 20.38586 A 997.85166 997.85166 0 0 0 398.59082 727.777 c 7.38153 -22.99578 33.15918 -45.10174 33.15918 -45.10174 c -19.82056 6.16638 -30.13214 16.2124 -35.4693 25.5246 A 401.561 401.561 0 0 1 417.75 569.17528 s -40 90 -34 150 l 0.76129 10.65808 C 349.71191 735.26213 332.25 740.67528 332.25 740.67528 Z" stroke-linecap="round"/>
</g>
		<g transform="matrix(1.1331 0 0 1.1331 12.2849 327.4461)" id="955441">
<rect style="stroke: none; stroke-width: 1; stroke-dasharray: none; stroke-linecap: butt; stroke-dashoffset: 0; stroke-linejoin: miter; stroke-miterlimit: 4; is-custom-font: none; font-file-url: none; fill: rgb(63,61,86); fill-rule: nonzero; opacity: 1;" x="-428.9138" y="-1" rx="0" ry="0" width="857.8276" height="2"/>
</g>
		<g transform="matrix(1.1331 0 0 1.1331 -36.5567 -0.9987)" id="72740">
<path style="stroke: none; stroke-width: 1; stroke-dasharray: none; stroke-linecap: butt; stroke-dashoffset: 0; stroke-linejoin: miter; stroke-miterlimit: 4; is-custom-font: none; font-file-url: none; fill: rgb(63,61,86); fill-rule: nonzero; opacity: 1;" transform=" translate(-567.735, -449.1147)" d="M 713.725 293.08473 v 65.68 a 2.29614 2.29614 0 0 1 -2.29 2.29 h -1.62989 v 342.15 a 35.702 35.702 0 0 1 -35.70007 35.7 H 460.31509 a 35.69346 35.69346 0 0 1 -35.69006 -35.7 v -330.15 h -1.18 a 1.6176 1.6176 0 0 1 -1.62 -1.61 v -37.38 a 1.61971 1.61971 0 0 1 1.62 -1.62 h 1.18 v -14.08 H 423.435 a 1.69647 1.69647 0 0 1 -1.68994 -1.7 v -36.87 a 1.69432 1.69432 0 0 1 1.68994 -1.69 H 424.625 v -19.22 H 423.415 a 1.498 1.498 0 0 1 -1.5 -1.5 v -20.12 a 1.50661 1.50661 0 0 1 1.5 -1.51 H 424.625 v -40.74 a 35.69136 35.69136 0 0 1 35.69006 -35.69 H 674.105 a 35.69991 35.69991 0 0 1 35.70007 35.69 v 95.78 H 711.435 A 2.29609 2.29609 0 0 1 713.725 293.08473 Z" stroke-linecap="round"/>
</g>
		<g transform="matrix(1.1331 0 0 1.1331 -45.1641 -304.0352)" id="162371">
<rect style="stroke: none; stroke-width: 1; stroke-dasharray: none; stroke-linecap: butt; stroke-dashoffset: 0; stroke-linejoin: miter; stroke-miterlimit: 4; is-custom-font: none; font-file-url: none; fill: rgb(230,232,236); fill-rule: nonzero; opacity: 1;" x="-19.9117" y="-4.0432" rx="2.54189" ry="2.54189" width="39.8234" height="8.0864"/>
</g>
		<g transform="matrix(1.1331 0 0 1.1331 -10.5829 -304.0352)" id="910998">
<circle style="stroke: none; stroke-width: 1; stroke-dasharray: none; stroke-linecap: butt; stroke-dashoffset: 0; stroke-linejoin: miter; stroke-miterlimit: 4; is-custom-font: none; font-file-url: none; fill: rgb(230,232,236); fill-rule: nonzero; opacity: 1;" cx="0" cy="0" r="4.58665"/>
</g>
		<g transform="matrix(1.1331 0 0 1.1331 -36.5571 4.6671)" id="697701">
<path fill="currentColor" style="stroke: none; stroke-width: 1; stroke-dasharray: none; stroke-linecap: butt; stroke-dashoffset: 0; stroke-linejoin: miter; stroke-miterlimit: 4; is-custom-font: none; font-file-url: none; fill-rule: nonzero; opacity: 1;" transform=" translate(-567.735, -454.1153)" d="M 692.71 202.07524 v 504.09 a 22.58 22.58 0 0 1 -7.96 17.23 a 22.6419 22.6419 0 0 1 -14.69 5.41 H 465.41 a 22.58668 22.58668 0 0 1 -10.46 -2.55 a 21.15539 21.15539 0 0 1 -2.2 -1.3 a 22.66834 22.66834 0 0 1 -9.99 -18.79 v -504.09 a 22.649 22.649 0 0 1 22.65 -22.65 h 30.63 v 3.93 a 18.65015 18.65015 0 0 0 18.65 18.65 H 618.77 a 18.65009 18.65009 0 0 0 18.65 -18.65 v -3.93 h 32.64 A 22.64264 22.64264 0 0 1 692.71 202.07524 Z" stroke-linecap="round"/>
</g>
		<g transform="matrix(1.1331 0 0 1.1331 -36.5571 235.0712)" id="580148">
<path style="stroke: none; stroke-width: 1; stroke-dasharray: none; stroke-linecap: butt; stroke-dashoffset: 0; stroke-linejoin: miter; stroke-miterlimit: 4; is-custom-font: none; font-file-url: none; fill: rgb(255,255,255); fill-rule: nonzero; opacity: 0.3;" transform=" translate(-567.735, -657.4603)" d="M 692.71 634.00524 v 72.16 a 22.58 22.58 0 0 1 -7.96 17.23 a 22.6419 22.6419 0 0 1 -14.69 5.41 H 465.41 a 22.58668 22.58668 0 0 1 -10.46 -2.55 a 21.15539 21.15539 0 0 1 -2.2 -1.3 a 22.66834 22.66834 0 0 1 -9.99 -18.79 v -72.13 a 186.97056 186.97056 0 0 1 249.95 -0.03 Z" stroke-linecap="round"/>
</g>
		<g transform="matrix(1.1331 0 0 1.1331 -36.5459 271.8281)" id="496078">
<path style="stroke: none; stroke-width: 1; stroke-dasharray: none; stroke-linecap: butt; stroke-dashoffset: 0; stroke-linejoin: miter; stroke-miterlimit: 4; is-custom-font: none; font-file-url: none; fill: rgb(255,255,255); fill-rule: nonzero; opacity: 0.3;" transform=" translate(-567.745, -689.9003)" d="M 680.54 726.23528 a 22.40961 22.40961 0 0 1 -10.48 2.57 H 465.41 a 22.58668 22.58668 0 0 1 -10.46 -2.55 a 122.16129 122.16129 0 0 1 225.59 -0.02 Z" stroke-linecap="round"/>
</g>
		<g transform="matrix(1.1331 0 0 1.1331 -36.5466 289.4556)" id="625094">
<path style="stroke: none; stroke-width: 1; stroke-dasharray: none; stroke-linecap: butt; stroke-dashoffset: 0; stroke-linejoin: miter; stroke-miterlimit: 4; is-custom-font: none; font-file-url: none; fill: rgb(255,255,255); fill-rule: nonzero; opacity: 0.3;" transform=" translate(-567.745, -705.4577)" d="M 636 727.44483 A 13.56058 13.56058 0 0 1 629.65831 729 H 505.81957 a 13.66765 13.66765 0 0 1 -6.32958 -1.5431 A 73.92279 73.92279 0 0 1 636 727.44483 Z" stroke-linecap="round"/>
</g>
		<g transform="matrix(1.1331 0 0 1.1331 -36.6161 -105.2125)" id="496001">
<path style="stroke: none; stroke-width: 1; stroke-dasharray: none; stroke-linecap: butt; stroke-dashoffset: 0; stroke-linejoin: miter; stroke-miterlimit: 4; is-custom-font: none; font-file-url: none; fill: rgb(255,255,255); fill-rule: nonzero; opacity: 1;" transform=" translate(-567.6829, -357.1449)" d="M 619.7959 374.5752 c -20.52881 0 -43.05811 -3.90918 -60.646 -17.1001 c -24.4873 -18.36524 -54.65674 -17.38526 -75.65332 -13.32813 a 164.86282 164.86282 0 0 0 -40.27441 13.415 l -0.92481 -1.77344 a 166.95707 166.95707 0 0 1 40.76758 -13.59521 c 21.40918 -4.14356 52.19678 -5.13379 77.28516 13.68213 c 46.99951 35.24951 131.15771 3.59033 132.00146 3.26758 l 0.7168 1.86718 a 242.3548 242.3548 0 0 1 -48.70606 11.85694 A 186.20165 186.20165 0 0 1 619.7959 374.5752 Z" stroke-linecap="round"/>
</g>
		<g transform="matrix(1.1331 0 0 1.1331 -36.5401 -99.8488)" id="965627">
<path style="stroke: none; stroke-width: 1; stroke-dasharray: none; stroke-linecap: butt; stroke-dashoffset: 0; stroke-linejoin: miter; stroke-miterlimit: 4; is-custom-font: none; font-file-url: none; fill: rgb(255,255,255); fill-rule: nonzero; opacity: 0.3;" transform=" translate(-567.75, -361.8786)" d="M 442.75 356.67528 s 69 -16.71229 117 6.16983 s 133 -0.16983 133 -0.16983" stroke-linecap="round"/>
</g>
		<g transform="matrix(1.1331 0 0 1.1331 -36.6161 -96.0788)" id="905670">
<path style="stroke: none; stroke-width: 1; stroke-dasharray: none; stroke-linecap: butt; stroke-dashoffset: 0; stroke-linejoin: miter; stroke-miterlimit: 4; is-custom-font: none; font-file-url: none; fill: rgb(255,255,255); fill-rule: nonzero; opacity: 0.3;" transform=" translate(-567.6829, -365.2057)" d="M 507.89111 382.63623 a 131.45576 131.45576 0 0 1 -24.82617 -2.479 A 166.95732 166.95732 0 0 1 442.29736 366.562 l 0.92481 -1.77344 a 164.86232 164.86232 0 0 0 40.27441 13.415 c 20.99561 4.05664 51.16553 5.03711 75.65332 -13.32812 c 25.06641 -18.79981 60.17725 -18.74707 85.2124 -15.39209 a 242.3552 242.3552 0 0 1 48.70606 11.85693 l -0.7168 1.86719 c -0.84472 -0.32373 -85.001 -31.9834 -132.00146 3.26758 C 543.898 378.81445 524.99316 382.63623 507.89111 382.63623 Z" stroke-linecap="round"/>
</g>
		<g transform="matrix(1.1331 0 0 1.1331 -36.6086 -101.2114)" id="722286">
<path style="stroke: none; stroke-width: 1; stroke-dasharray: none; stroke-linecap: butt; stroke-dashoffset: 0; stroke-linejoin: miter; stroke-miterlimit: 4; is-custom-font: none; font-file-url: none; fill: rgb(255,255,255); fill-rule: nonzero; opacity: 0.3;" transform=" translate(-567.6895, -360.6761)" d="M 508.231 374.5835 c -34.63428 0 -65.39063 -12.4253 -65.852 -12.61524 l 0.76172 -1.84961 c 0.68457 0.28223 69.08837 27.89942 116.10009 0.06446 c 47.82471 -28.31983 132.90576 -3.041 133.75928 -2.78223 l -0.58008 1.91406 c -0.84472 -0.25586 -85.09277 -25.28125 -132.16064 2.58887 C 544.19678 371.415 525.71875 374.5835 508.231 374.5835 Z" stroke-linecap="round"/>
</g>
		<g transform="matrix(1.1331 0 0 1.1331 -36.5571 -102.8735)" id="184479">
<path style="stroke: none; stroke-width: 1; stroke-dasharray: none; stroke-linecap: butt; stroke-dashoffset: 0; stroke-linejoin: miter; stroke-miterlimit: 4; is-custom-font: none; font-file-url: none; fill: rgb(255,255,255); fill-rule: nonzero; opacity: 0.3;" transform=" translate(-567.735, -359.2092)" d="M 442.76 359.50545 s 68.99 22.88212 116.99 0 s 132.96 -2.16209 132.96 -2.16209" stroke-linecap="round"/>
</g>
		<g transform="matrix(1.1331 0 0 1.1331 147.3597 24.8195)" id="936098">
<path style="stroke: none; stroke-width: 1; stroke-dasharray: none; stroke-linecap: butt; stroke-dashoffset: 0; stroke-linejoin: miter; stroke-miterlimit: 4; is-custom-font: none; font-file-url: none; fill: rgb(255,184,184); fill-rule: nonzero; opacity: 1;" transform=" translate(-730.0515, -471.9036)" d="M 710.51913 420.72469 v 29.15278 s 2.33223 32.65113 15.15945 48.97669 c 0 0 20.99 29.73584 23.90529 23.32223 l -3.59045 -21.11522 l -12.15205 -11.5359 l -6.41362 -36.14946 l -1.74917 -32.65112 Z" stroke-linecap="round"/>
</g>
		<g transform="matrix(1.1331 0 0 1.1331 261.3218 281.299)" id="221045">
<polygon style="stroke: none; stroke-width: 1; stroke-dasharray: none; stroke-linecap: butt; stroke-dashoffset: 0; stroke-linejoin: miter; stroke-miterlimit: 4; is-custom-font: none; font-file-url: none; fill: rgb(255,184,184); fill-rule: nonzero; opacity: 1;" points="8.7455,-13.9935 8.7455,7.5795 -8.7455,13.9935 -8.7455,-11.0785 8.7455,-13.9935 "/>
</g>
		<g transform="matrix(1.1331 0 0 1.1331 232.9136 281.6293)" id="380954">
<polygon style="stroke: none; stroke-width: 1; stroke-dasharray: none; stroke-linecap: butt; stroke-dashoffset: 0; stroke-linejoin: miter; stroke-miterlimit: 4; is-custom-font: none; font-file-url: none; fill: rgb(255,184,184); fill-rule: nonzero; opacity: 1;" points="-1.749,-16.617 9.912,9.62 -6.413,16.617 -9.912,-9.037 -1.749,-16.617 "/>
</g>
		<g transform="matrix(1.1331 0 0 1.1331 221.7829 149.1213)" id="726650">
<path style="stroke: none; stroke-width: 1; stroke-dasharray: none; stroke-linecap: butt; stroke-dashoffset: 0; stroke-linejoin: miter; stroke-miterlimit: 4; is-custom-font: none; font-file-url: none; fill: rgb(47,46,65); fill-rule: nonzero; opacity: 1;" transform=" translate(-795.733, -581.6049)" d="M 832.96085 480.77943 s 23.32223 210.48313 14.57639 211.06619 s -25.65445 11.66112 -25.65445 4.08139 S 808.4725 589.81086 808.4725 589.81086 L 795.64528 539.085 V 609.0517 l 13.41028 79.29559 s -12.82723 16.90861 -22.15612 6.99667 l -19.8239 -77.54642 S 740.838 500.02027 742.00415 490.69138 C 742.00415 490.69138 802.05889 439.38247 832.96085 480.77943 Z" stroke-linecap="round"/>
</g>
		<g transform="matrix(1.1331 0 0 1.1331 274.2279 305.8134)" id="230700">
<path style="stroke: none; stroke-width: 1; stroke-dasharray: none; stroke-linecap: butt; stroke-dashoffset: 0; stroke-linejoin: miter; stroke-miterlimit: 4; is-custom-font: none; font-file-url: none; fill: rgb(47,46,65); fill-rule: nonzero; opacity: 1;" transform=" translate(-842.0185, -719.8942)" d="M 828.2964 707.00507 s 4.66445 -9.912 15.15945 -3.49833 l 8.74584 10.495 S 874.75 732.67528 858.75 736.67528 c -16.49131 4.12283 -26.37221 -0.26326 -26.37221 -0.26326 s -2.91528 -1.74916 -5.2475 -1.74916 s -7.57973 -4.08139 -7.57973 -5.24751 s 1.74917 -21.82722 1.74917 -21.82722 a 3.67667 3.67667 0 0 1 4.08139 0.58305 C 827.13029 709.92035 828.2964 707.00507 828.2964 707.00507 Z" stroke-linecap="round"/>
</g>
		<g transform="matrix(1.1331 0 0 1.1331 226.8184 305.5185)" id="48170">
<path style="stroke: none; stroke-width: 1; stroke-dasharray: none; stroke-linecap: butt; stroke-dashoffset: 0; stroke-linejoin: miter; stroke-miterlimit: 4; is-custom-font: none; font-file-url: none; fill: rgb(47,46,65); fill-rule: nonzero; opacity: 1;" transform=" translate(-800.1774, -719.634)" d="M 793.89611 703.50674 s 11.07806 -8.74584 16.32556 1.16611 c 0 0 3.304 1.16611 3.69269 0 s 3.304 -1.74917 3.304 4.66444 s 3.16611 22.41029 0.25083 22.99334 s -5.83055 2.33223 -5.2475 4.66445 s -3.16611 2.66111 -16.57639 2.07806 s -13.99334 -5.83056 -13.99334 -5.83056 s 0 -7.57972 3.49833 -11.66111 S 793.89611 703.50674 793.89611 703.50674 Z" stroke-linecap="round"/>
</g>
		<g transform="matrix(1.1331 0 0 1.1331 187.0521 -116.1916)" id="995423">
<path style="stroke: none; stroke-width: 1; stroke-dasharray: none; stroke-linecap: butt; stroke-dashoffset: 0; stroke-linejoin: miter; stroke-miterlimit: 4; is-custom-font: none; font-file-url: none; fill: rgb(255,184,184); fill-rule: nonzero; opacity: 1;" transform=" translate(-765.0819, -347.4551)" d="M 772.32305 321.6052 s -2.91528 21.57307 15.7425 29.15279 s -41.397 32.65113 -47.22752 18.07473 s 1.16612 -19.24084 1.16612 -19.24084 s 5.83055 -5.83056 0.58305 -21.57306 Z" stroke-linecap="round"/>
</g>
		<g transform="matrix(1.1331 0 0 1.1331 174.1161 -157.3735)" id="879557">
<circle style="stroke: none; stroke-width: 1; stroke-dasharray: none; stroke-linecap: butt; stroke-dashoffset: 0; stroke-linejoin: miter; stroke-miterlimit: 4; is-custom-font: none; font-file-url: none; fill: rgb(255,184,184); fill-rule: nonzero; opacity: 1;" cx="0" cy="0" r="25.65445"/>
</g>
		<g transform="matrix(1.1331 0 0 1.1331 189.6402 -77.1043)" id="584181">
<path style="stroke: none; stroke-width: 1; stroke-dasharray: none; stroke-linecap: butt; stroke-dashoffset: 0; stroke-linejoin: miter; stroke-miterlimit: 4; is-custom-font: none; font-file-url: none; fill: rgb(242,242,242); fill-rule: nonzero; opacity: 1;" transform=" translate(-767.3659, -381.9515)" d="M 783.40111 357.75466 s -17.49168 9.32889 -34.40029 2.33223 s -16.32557 23.32223 -16.32557 23.32223 l 8.74584 22.73917 l 60.6378 -5.83056 l -4.08139 -34.98334 Z" stroke-linecap="round"/>
</g>
		<g transform="matrix(1.1331 0 0 1.1331 199.0498 -34.6148)" id="128169">
<path style="stroke: none; stroke-width: 1; stroke-dasharray: none; stroke-linecap: butt; stroke-dashoffset: 0; stroke-linejoin: miter; stroke-miterlimit: 4; is-custom-font: none; font-file-url: none; fill: rgb(63,61,86); fill-rule: nonzero; opacity: 1;" transform=" translate(-775.6698, -419.4498)" d="M 774.71069 337.80432 a 21.16638 21.16638 0 0 1 14.521 11.20451 l 27.98668 8.74583 l 6.99667 9.91195 l -8.16278 71.71586 s 15.15945 14.57639 15.15945 22.73918 s 18.65778 36.14945 9.32889 32.65112 s -26.23751 -15.74251 -26.23751 -15.74251 s -42.56307 1.74917 -55.97335 13.41029 s -18.65779 8.16278 -18.65779 8.16278 s -13.99334 -60.6378 -14.57639 -69.9667 s -16.90862 -65.30224 -16.90862 -65.30224 l 29.15279 -16.32556 l 7.42538 -8.42509 l 20.5613 32.91343 L 783.98416 350.758 S 774.7661 343.50843 774.71069 337.80432 Z" stroke-linecap="round"/>
</g>
		<g transform="matrix(1.1331 0 0 1.1331 263.7679 34.791)" id="755438">
<path style="stroke: none; stroke-width: 1; stroke-dasharray: none; stroke-linecap: butt; stroke-dashoffset: 0; stroke-linejoin: miter; stroke-miterlimit: 4; is-custom-font: none; font-file-url: none; fill: rgb(255,184,184); fill-rule: nonzero; opacity: 1;" transform=" translate(-832.7872, -480.7038)" d="M 832.96085 412.5619 l 3.49833 18.65779 s 15.74251 58.30558 13.41028 78.12947 c 0 0 1.74917 44.31224 -8.16278 39.06474 s -4.66444 -37.31557 -4.66444 -37.31557 L 823.0489 453.37581 l -7.57973 -33.81724 Z" stroke-linecap="round"/>
</g>
		<g transform="matrix(1.1331 0 0 1.1331 257.8136 -60.9182)" id="461870">
<path style="stroke: none; stroke-width: 1; stroke-dasharray: none; stroke-linecap: butt; stroke-dashoffset: 0; stroke-linejoin: miter; stroke-miterlimit: 4; is-custom-font: none; font-file-url: none; fill: rgb(63,61,86); fill-rule: nonzero; opacity: 1;" transform=" translate(-827.5323, -396.2363)" d="M 818.38445 364.16828 l 5.83056 3.49833 s 22.15612 46.06141 16.90862 49.55974 S 813.137 428.30441 813.137 428.30441 Z" stroke-linecap="round"/>
</g>
		<g transform="matrix(1.1331 0 0 1.1331 133.4861 -58.441)" id="410958">
<polygon style="stroke: none; stroke-width: 1; stroke-dasharray: none; stroke-linecap: butt; stroke-dashoffset: 0; stroke-linejoin: miter; stroke-miterlimit: 4; is-custom-font: none; font-file-url: none; fill: rgb(63,61,86); fill-rule: nonzero; opacity: 1;" points="4.3725,-33.088 -9.3295,-33.38 -12.5355,-27.841 -8.4545,28.716 12.5355,33.38 4.3725,-33.088 "/>
</g>
		<g transform="matrix(1.1331 0 0 1.1331 171.0359 -173.2645)" id="934596">
<path style="stroke: none; stroke-width: 1; stroke-dasharray: none; stroke-linecap: butt; stroke-dashoffset: 0; stroke-linejoin: miter; stroke-miterlimit: 4; is-custom-font: none; font-file-url: none; fill: rgb(47,46,65); fill-rule: nonzero; opacity: 1;" transform=" translate(-750.9467, -297.0857)" d="M 774.55608 289.41318 l 4.62409 -1.68149 s -9.6685 -9.66851 -23.12045 -8.82773 l 3.78344 -3.78338 s -9.24818 -3.36292 -17.65558 5.46481 c -4.4196 4.64055 -9.53315 10.09526 -12.72091 16.23994 h -4.95208 l 2.06681 4.13363 l -7.23384 4.13362 l 7.42483 -0.7425 a 20.85851 20.85851 0 0 0 0.70227 10.70563 l 1.68143 4.624 s 6.726 -13.45182 6.726 -15.13331 v 4.2037 s 4.62409 -3.78332 4.62409 -6.30552 l 2.52221 2.94259 l 1.2611 -4.62409 l 15.5537 4.62409 l -2.52221 -3.78331 l 9.66851 1.26111 l -3.78344 -4.62409 s 10.92961 5.4648 11.35006 10.08889 s 3.306 10.65165 3.306 10.65165 l 3.49833 -4.08139 S 786.7468 295.7187 774.55608 289.41318 Z" stroke-linecap="round"/>
</g>
		<g transform="matrix(1.1331 0 0 1.1331 198.5599 -157.0435)" id="381212">
<ellipse style="stroke: none; stroke-width: 1; stroke-dasharray: none; stroke-linecap: butt; stroke-dashoffset: 0; stroke-linejoin: miter; stroke-miterlimit: 4; is-custom-font: none; font-file-url: none; fill: rgb(255,184,184); fill-rule: nonzero; opacity: 1;" cx="0" cy="0" rx="2.0407" ry="5.2475"/>
</g>
		<g transform="matrix(1.1331 0 0 1.1331 -432.6268 280.4964)" id="419261">
<path style="stroke: none; stroke-width: 1; stroke-dasharray: none; stroke-linecap: butt; stroke-dashoffset: 0; stroke-linejoin: miter; stroke-miterlimit: 4; is-custom-font: none; font-file-url: none; fill: rgb(63,61,86); fill-rule: nonzero; opacity: 1;" transform=" translate(-218.1864, -697.5506)" d="M 201.884 706.3411 c 12.42842 23.049 38.806 32.94351 38.806 32.94351 s 6.22712 -27.47543 -6.2013 -50.52448 s -38.806 -32.9435 -38.806 -32.9435 S 189.45559 683.29206 201.884 706.3411 Z" stroke-linecap="round"/>
</g>
		<g transform="matrix(1.1331 0 0 1.1331 -452.2381 299.847)" id="823724">
<path fill="currentColor" style="stroke: none; stroke-width: 1; stroke-dasharray: none; stroke-linecap: butt; stroke-dashoffset: 0; stroke-linejoin: miter; stroke-miterlimit: 4; is-custom-font: none; font-file-url: none; fill-rule: nonzero; opacity: 1;" transform=" translate(-200.8783, -714.6286)" d="M 210.42653 698.75813 c 22.43841 13.49969 31.08016 40.3138 31.08016 40.3138 s -27.73812 4.92679 -50.17653 -8.57291 S 160.25 690.18522 160.25 690.18522 S 187.98811 685.25844 210.42653 698.75813 Z" stroke-linecap="round"/>
</g>
		<g transform="matrix(1.1331 0 0 1.1331 -36.5571 -105.2164)" id="172887">
<path style="stroke: none; stroke-width: 1; stroke-dasharray: none; stroke-linecap: butt; stroke-dashoffset: 0; stroke-linejoin: miter; stroke-miterlimit: 4; is-custom-font: none; font-file-url: none; fill: rgb(255,255,255); fill-rule: nonzero; opacity: 0.3;" transform=" translate(-567.735, -357.1413)" d="M 442.76 356.67528 s 68.99 -36 116.99 0 s 132.96 3.40157 132.96 3.40157" stroke-linecap="round"/>
</g>
		<g transform="matrix(1.1331 0 0 1.1331 -36.2585 296.8683)" id="469534">
<circle style="stroke: none; stroke-width: 1; stroke-dasharray: none; stroke-linecap: butt; stroke-dashoffset: 0; stroke-linejoin: miter; stroke-miterlimit: 4; is-custom-font: none; font-file-url: none; fill: rgb(255,255,255); fill-rule: nonzero; opacity: 1;" cx="0" cy="0" r="11"/>
</g>
</g>
</g>
</svg>