<svg xmlns="http://www.w3.org/2000/svg"
	xmlns:xlink="http://www.w3.org/1999/xlink" version="1.1"
	style="width: 100%;" viewBox="0 0 1000 1000" xml:space="preserve">
<desc>Created with Fabric.js 3.5.0</desc>
<defs>
</defs>
<rect x="0" y="0" width="100%" height="100%" fill="rgba(255,255,255,0)"/>
<g transform="matrix(0.9892 0 0 0.9892 499.987 499.9906)" id="52241">
<g style="" vector-effect="non-scaling-stroke">
		<g transform="matrix(1 0 0 1 0 203.3167)" id="eb1b09ad-1fe0-40ca-8096-34696e14e30a">
<path style="stroke: none; stroke-width: 1; stroke-dasharray: none; stroke-linecap: butt; stroke-dashoffset: 0; stroke-linejoin: miter; stroke-miterlimit: 4; is-custom-font: none; font-file-url: none; fill: rgb(63,61,86); fill-rule: nonzero; opacity: 1;" transform=" translate(-600, -653.3167)" d="M 1105.44584 813.64206 q -78.13266 -11.44365 -150.28146 -19.73 l 19.01951 -30.77769 c -6.41163 -1.89409 -34.58476 15.65146 -34.58476 15.65146 l 24.9672 -89.4801 c -32.24833 3.10673 -48.65763 94.51337 -48.65763 94.51337 L 879.884 752.72283 l 17.43785 34.85367 c -147.2123 -15.19523 -274.3507 -21.16492 -381.28967 -21.85348 L 532.311 739.38054 c -6.41164 -1.8941 -34.58476 15.65146 -34.58476 15.65146 l 24.9672 -89.4801 c -32.24834 3.10672 -48.65763 94.51337 -48.65763 94.51337 L 438.01107 728.969 l 18.46945 36.91575 c -89.651 1.08665 -162.76069 5.87171 -219.19088 11.45114 c 16.46742 -41.07795 72.39365 -79.96014 72.39365 -79.96014 c -42.70771 10.43621 -65.112 28.1517 -76.82 44.71011 c -0.89495 -50.81752 5.12559 -144.99985 49.85547 -249.09453 c 0 0 -88.29554 160.40869 -77.04785 268.40786 l 1.34441 19.17452 c -74.83623 8.62484 -112.4612 17.78422 -112.4612 17.78422 Z" stroke-linecap="round"/>
</g>
		<g transform="matrix(1 0 0 1 -128.6244 -10.422)" id="eb1b09ad-1fe0-40ca-8096-34696e14e30a">
<path style="stroke: none; stroke-width: 1; stroke-dasharray: none; stroke-linecap: butt; stroke-dashoffset: 0; stroke-linejoin: miter; stroke-miterlimit: 4; is-custom-font: none; font-file-url: none; fill: rgb(63,61,86); fill-rule: nonzero; opacity: 1;" transform=" translate(-471.3756, -439.578)" d="M 632.0806 115.488 v 648.2 a 29.13909 29.13909 0 0 1 -29.13 29.11 h -263.15 a 29.07906 29.07906 0 0 1 -29.13 -29.11 v -648.2 a 29.12748 29.12748 0 0 1 29.13 -29.13 h 39.38 v 5.05 a 23.987 23.987 0 0 0 23.98 23.99 h 133.84 a 23.78923 23.78923 0 0 0 14.22 -4.68 a 22.28455 22.28455 0 0 0 2.36 -1.98 a 23.917 23.917 0 0 0 7.4 -17.33 v -5.05 h 41.97 A 29.12108 29.12108 0 0 1 632.0806 115.488 Z" stroke-linecap="round"/>
</g>
		<g transform="matrix(1 0 0 1 -216.0194 -255.6421)" id="eb1b09ad-1fe0-40ca-8096-34696e14e30a">
<circle style="stroke: none; stroke-width: 1; stroke-dasharray: none; stroke-linecap: butt; stroke-dashoffset: 0; stroke-linejoin: miter; stroke-miterlimit: 4; is-custom-font: none; font-file-url: none; fill: rgb(242,242,242); fill-rule: nonzero; opacity: 1;" cx="0" cy="0" r="7"/>
</g>
		<g transform="matrix(1 0 0 1 -8.3494 -310.177)" id="eb1b09ad-1fe0-40ca-8096-34696e14e30a">
<path fill="currentColor" style="stroke: none; stroke-width: 1; stroke-dasharray: none; stroke-linecap: butt; stroke-dashoffset: 0; stroke-linejoin: miter; stroke-miterlimit: 4; is-custom-font: none; font-file-url: none; fill-rule: nonzero; opacity: 1;" transform=" translate(-591.6506, -139.823)" d="M 553.5806 108.738 a 22.28455 22.28455 0 0 1 -2.36 1.98 a 125.247 125.247 0 0 0 80.86 60.19 v -3.12 A 122.29883 122.29883 0 0 1 553.5806 108.738 Z" stroke-linecap="round"/>
</g>
		<g transform="matrix(1 0 0 1 -38.7144 -278.0771)" id="eb1b09ad-1fe0-40ca-8096-34696e14e30a">
<path fill="currentColor" style="stroke: none; stroke-width: 1; stroke-dasharray: none; stroke-linecap: butt; stroke-dashoffset: 0; stroke-linejoin: miter; stroke-miterlimit: 4; is-custom-font: none; font-file-url: none; fill-rule: nonzero; opacity: 1;" transform=" translate(-561.2856, -171.9229)" d="M 493.7706 115.39792 h -3.28 a 181.66827 181.66827 0 0 0 141.59 113.05 v -3.1 A 178.54983 178.54983 0 0 1 493.7706 115.39792 Z" stroke-linecap="round"/>
</g>
		<g transform="matrix(1 0 0 1 -68.8644 -249.0421)" id="eb1b09ad-1fe0-40ca-8096-34696e14e30a">
<path fill="currentColor" style="stroke: none; stroke-width: 1; stroke-dasharray: none; stroke-linecap: butt; stroke-dashoffset: 0; stroke-linejoin: miter; stroke-miterlimit: 4; is-custom-font: none; font-file-url: none; fill-rule: nonzero; opacity: 1;" transform=" translate(-531.1356, -200.9579)" d="M 433.35062 115.39792 h -3.16 c 26.43 91.74 106.18 160.03 201.89 171.12 v -3.05 C 538.03061 272.428 459.65061 205.4379 433.35062 115.39792 Z" stroke-linecap="round"/>
</g>
		<g transform="matrix(1 0 0 1 -241.0198 -203.6421)" id="eb1b09ad-1fe0-40ca-8096-34696e14e30a">
<polygon style="stroke: none; stroke-width: 1; stroke-dasharray: none; stroke-linecap: butt; stroke-dashoffset: 0; stroke-linejoin: miter; stroke-miterlimit: 4; is-custom-font: none; font-file-url: none; fill: rgb(242,242,242); fill-rule: nonzero; opacity: 1;" points="2,-0.178 0.178,-0.178 0.178,-2 -0.177,-2 -0.177,-0.178 -2,-0.178 -2,0.178 -0.177,0.178 -0.177,2 0.178,2 0.178,0.178 2,0.178 2,-0.178 "/>
</g>
		<g transform="matrix(1 0 0 1 -118.0198 -294.6421)" id="eb1b09ad-1fe0-40ca-8096-34696e14e30a">
<polygon style="stroke: none; stroke-width: 1; stroke-dasharray: none; stroke-linecap: butt; stroke-dashoffset: 0; stroke-linejoin: miter; stroke-miterlimit: 4; is-custom-font: none; font-file-url: none; fill: rgb(242,242,242); fill-rule: nonzero; opacity: 1;" points="2,-0.178 0.178,-0.178 0.178,-2 -0.177,-2 -0.177,-0.178 -2,-0.178 -2,0.178 -0.177,0.178 -0.177,2 0.178,2 0.178,0.178 2,0.178 2,-0.178 "/>
</g>
		<g transform="matrix(1 0 0 1 -223.0198 -131.6421)" id="eb1b09ad-1fe0-40ca-8096-34696e14e30a">
<polygon style="stroke: none; stroke-width: 1; stroke-dasharray: none; stroke-linecap: butt; stroke-dashoffset: 0; stroke-linejoin: miter; stroke-miterlimit: 4; is-custom-font: none; font-file-url: none; fill: rgb(242,242,242); fill-rule: nonzero; opacity: 1;" points="2,-0.178 0.178,-0.178 0.178,-2 -0.177,-2 -0.177,-0.178 -2,-0.178 -2,0.178 -0.177,0.178 -0.177,2 0.178,2 0.178,0.178 2,0.178 2,-0.178 "/>
</g>
		<g transform="matrix(1 0 0 1 -139.0198 -184.6421)" id="eb1b09ad-1fe0-40ca-8096-34696e14e30a">
<polygon style="stroke: none; stroke-width: 1; stroke-dasharray: none; stroke-linecap: butt; stroke-dashoffset: 0; stroke-linejoin: miter; stroke-miterlimit: 4; is-custom-font: none; font-file-url: none; fill: rgb(242,242,242); fill-rule: nonzero; opacity: 1;" points="2,-0.178 0.178,-0.178 0.178,-2 -0.177,-2 -0.177,-0.178 -2,-0.178 -2,0.178 -0.177,0.178 -0.177,2 0.178,2 0.178,0.178 2,0.178 2,-0.178 "/>
</g>
		<g transform="matrix(1 0 0 1 -19.0198 -151.6421)" id="eb1b09ad-1fe0-40ca-8096-34696e14e30a">
<polygon style="stroke: none; stroke-width: 1; stroke-dasharray: none; stroke-linecap: butt; stroke-dashoffset: 0; stroke-linejoin: miter; stroke-miterlimit: 4; is-custom-font: none; font-file-url: none; fill: rgb(242,242,242); fill-rule: nonzero; opacity: 1;" points="2,-0.178 0.178,-0.178 0.178,-2 -0.177,-2 -0.177,-0.178 -2,-0.178 -2,0.178 -0.177,0.178 -0.177,2 0.178,2 0.178,0.178 2,0.178 2,-0.178 "/>
</g>
		<g transform="matrix(1 0 0 1 -38.0194 -238.6421)" id="eb1b09ad-1fe0-40ca-8096-34696e14e30a">
<circle style="stroke: none; stroke-width: 1; stroke-dasharray: none; stroke-linecap: butt; stroke-dashoffset: 0; stroke-linejoin: miter; stroke-miterlimit: 4; is-custom-font: none; font-file-url: none; fill: rgb(255,101,132); fill-rule: nonzero; opacity: 1;" cx="0" cy="0" r="4"/>
</g>
		<g transform="matrix(1 0 0 1 -181.6044 -137.7821)" id="eb1b09ad-1fe0-40ca-8096-34696e14e30a">
<path style="stroke: none; stroke-width: 1; stroke-dasharray: none; stroke-linecap: butt; stroke-dashoffset: 0; stroke-linejoin: miter; stroke-miterlimit: 4; is-custom-font: none; font-file-url: none; fill: rgb(230,230,230); fill-rule: nonzero; opacity: 1;" transform=" translate(-418.3956, -312.2179)" d="M 418.68064 305.15793 l -2.27 0.35 c 0.71 4.54 1.27 9.18 1.68 13.77 l 2.29 -0.2 C 419.97061 314.428 419.40061 309.748 418.68064 305.15793 Z" stroke-linecap="round"/>
</g>
		<g transform="matrix(1 0 0 1 -186.8394 -165.1471)" id="eb1b09ad-1fe0-40ca-8096-34696e14e30a">
<path style="stroke: none; stroke-width: 1; stroke-dasharray: none; stroke-linecap: butt; stroke-dashoffset: 0; stroke-linejoin: miter; stroke-miterlimit: 4; is-custom-font: none; font-file-url: none; fill: rgb(230,230,230); fill-rule: nonzero; opacity: 1;" transform=" translate(-413.1606, -284.8529)" d="M 412.47061 277.8179 l -2.2 0.67005 c 1.33 4.4 2.52 8.91 3.53 13.4 l 2.25 -0.51 C 415.0206 286.83792 413.81064 282.27792 412.47061 277.8179 Z" stroke-linecap="round"/>
</g>
		<g transform="matrix(1 0 0 1 -195.7794 -191.5271)" id="eb1b09ad-1fe0-40ca-8096-34696e14e30a">
<path style="stroke: none; stroke-width: 1; stroke-dasharray: none; stroke-linecap: butt; stroke-dashoffset: 0; stroke-linejoin: miter; stroke-miterlimit: 4; is-custom-font: none; font-file-url: none; fill: rgb(230,230,230); fill-rule: nonzero; opacity: 1;" transform=" translate(-404.2206, -258.4729)" d="M 402.56064 251.59793 l -2.09 0.96 c 1.92 4.19 3.72 8.49 5.35 12.79 l 2.15 -0.81 C 406.32065 260.1879 404.51065 255.82791 402.56064 251.59793 Z" stroke-linecap="round"/>
</g>
		<g transform="matrix(1 0 0 1 -208.2494 -216.4021)" id="eb1b09ad-1fe0-40ca-8096-34696e14e30a">
<path style="stroke: none; stroke-width: 1; stroke-dasharray: none; stroke-linecap: butt; stroke-dashoffset: 0; stroke-linejoin: miter; stroke-miterlimit: 4; is-custom-font: none; font-file-url: none; fill: rgb(230,230,230); fill-rule: nonzero; opacity: 1;" transform=" translate(-391.7506, -233.5979)" d="M 389.16062 227.01792 l -1.94 1.23 c 2.47 3.87994 4.84 7.9 7.04 11.93 l 2.02 -1.1 C 394.06064 234.998 391.66062 230.9379 389.16062 227.01792 Z" stroke-linecap="round"/>
</g>
		<g transform="matrix(1 0 0 1 -224.0194 -239.337)" id="eb1b09ad-1fe0-40ca-8096-34696e14e30a">
<path style="stroke: none; stroke-width: 1; stroke-dasharray: none; stroke-linecap: butt; stroke-dashoffset: 0; stroke-linejoin: miter; stroke-miterlimit: 4; is-custom-font: none; font-file-url: none; fill: rgb(230,230,230); fill-rule: nonzero; opacity: 1;" transform=" translate(-375.9806, -210.663)" d="M 372.50064 204.488 l -1.75 1.49 c 2.98 3.5 5.88 7.16 8.62 10.86 l 1.84 -1.37 C 378.45059 211.72794 375.5206 208.02792 372.50064 204.488 Z" stroke-linecap="round"/>
</g>
		<g transform="matrix(1 0 0 1 -242.7744 -259.922)" id="eb1b09ad-1fe0-40ca-8096-34696e14e30a">
<path style="stroke: none; stroke-width: 1; stroke-dasharray: none; stroke-linecap: butt; stroke-dashoffset: 0; stroke-linejoin: miter; stroke-miterlimit: 4; is-custom-font: none; font-file-url: none; fill: rgb(230,230,230); fill-rule: nonzero; opacity: 1;" transform=" translate(-357.2256, -190.078)" d="M 352.92063 184.428 l -1.53 1.71 c 3.44 3.07 6.81 6.3 10.02 9.59 l 1.65 -1.61 C 359.81064 190.78793 356.40061 187.52792 352.92063 184.428 Z" stroke-linecap="round"/>
</g>
		<g transform="matrix(1 0 0 1 -264.1644 -277.7721)" id="eb1b09ad-1fe0-40ca-8096-34696e14e30a">
<path style="stroke: none; stroke-width: 1; stroke-dasharray: none; stroke-linecap: butt; stroke-dashoffset: 0; stroke-linejoin: miter; stroke-miterlimit: 4; is-custom-font: none; font-file-url: none; fill: rgb(230,230,230); fill-rule: nonzero; opacity: 1;" transform=" translate(-335.8356, -172.2279)" d="M 330.80063 167.20792 l -1.29 1.9 c 3.82 2.57 7.6 5.31 11.23 8.14 l 1.42 -1.81006 C 338.48062 172.57791 334.66062 169.808 330.80063 167.20792 Z" stroke-linecap="round"/>
</g>
		<g transform="matrix(1 0 0 1 -285.2144 -291.502)" id="eb1b09ad-1fe0-40ca-8096-34696e14e30a">
<path style="stroke: none; stroke-width: 1; stroke-dasharray: none; stroke-linecap: butt; stroke-dashoffset: 0; stroke-linejoin: miter; stroke-miterlimit: 4; is-custom-font: none; font-file-url: none; fill: rgb(230,230,230); fill-rule: nonzero; opacity: 1;" transform=" translate(-314.7856, -158.498)" d="M 310.67063 155.248 v 2.6 c 2.39 1.25 4.76 2.56 7.08 3.9 l 1.15 -1.99 Q 314.85058 157.41791 310.67063 155.248 Z" stroke-linecap="round"/>
</g>
		<g transform="matrix(1 0 0 1 -180.1921 67.9571)" id="eb1b09ad-1fe0-40ca-8096-34696e14e30a">
<path style="stroke: none; stroke-width: 1; stroke-dasharray: none; stroke-linecap: butt; stroke-dashoffset: 0; stroke-linejoin: miter; stroke-miterlimit: 4; is-custom-font: none; font-file-url: none; fill: rgb(230,230,230); fill-rule: nonzero; opacity: 1;" transform=" translate(-419.808, -517.9571)" d="M 418.16091 521.16082 c 0.373 -2.236 0.71425 -4.5192 1.01475 -6.78518 l 2.27933 0.30227 c -0.30389 2.29157 -0.649 4.5992 -1.02589 6.86071 Z" stroke-linecap="round"/>
</g>
		<g transform="matrix(1 0 0 1 -185.2957 91.7939)" id="eb1b09ad-1fe0-40ca-8096-34696e14e30a">
<path style="stroke: none; stroke-width: 1; stroke-dasharray: none; stroke-linecap: butt; stroke-dashoffset: 0; stroke-linejoin: miter; stroke-miterlimit: 4; is-custom-font: none; font-file-url: none; fill: rgb(230,230,230); fill-rule: nonzero; opacity: 1;" transform=" translate(-414.7043, -541.794)" d="M 411.75189 548.14021 l 2.19741 0.68431 c 1.37871 -4.44384 2.62647 -8.99608 3.70743 -13.53149 l -2.23928 -0.52959 C 414.34645 539.24986 413.12052 543.74533 411.75189 548.14021 Z" stroke-linecap="round"/>
</g>
		<g transform="matrix(1 0 0 1 -194.4841 118.0892)" id="eb1b09ad-1fe0-40ca-8096-34696e14e30a">
<path style="stroke: none; stroke-width: 1; stroke-dasharray: none; stroke-linecap: butt; stroke-dashoffset: 0; stroke-linejoin: miter; stroke-miterlimit: 4; is-custom-font: none; font-file-url: none; fill: rgb(230,230,230); fill-rule: nonzero; opacity: 1;" transform=" translate(-405.5159, -568.0892)" d="M 401.71048 573.97176 l 2.0863 0.978 c 1.98369 -4.2078 3.84038 -8.54363 5.52458 -12.88411 l -2.14578 -0.83709 C 405.51127 565.52206 403.67434 569.81092 401.71048 573.97176 Z" stroke-linecap="round"/>
</g>
		<g transform="matrix(1 0 0 1 -207.2097 142.89)" id="eb1b09ad-1fe0-40ca-8096-34696e14e30a">
<path style="stroke: none; stroke-width: 1; stroke-dasharray: none; stroke-linecap: butt; stroke-dashoffset: 0; stroke-linejoin: miter; stroke-miterlimit: 4; is-custom-font: none; font-file-url: none; fill: rgb(230,230,230); fill-rule: nonzero; opacity: 1;" transform=" translate(-392.7903, -592.89)" d="M 388.199 598.20534 l 1.92823 1.25186 c 2.54321 -3.89939 4.983 -7.94236 7.25441 -12.00964 l -2.00526 -1.12476 C 393.13462 590.34512 390.71455 594.3411 388.199 598.20534 Z" stroke-linecap="round"/>
</g>
		<g transform="matrix(1 0 0 1 -223.2282 165.7103)" id="eb1b09ad-1fe0-40ca-8096-34696e14e30a">
<path style="stroke: none; stroke-width: 1; stroke-dasharray: none; stroke-linecap: butt; stroke-dashoffset: 0; stroke-linejoin: miter; stroke-miterlimit: 4; is-custom-font: none; font-file-url: none; fill: rgb(230,230,230); fill-rule: nonzero; opacity: 1;" transform=" translate(-376.7718, -615.7103)" d="M 371.48232 620.34395 l 1.74272 1.51 c 3.05929 -3.52841 6.02513 -7.19843 8.83619 -10.91033 l -1.84138 -1.377 C 377.44823 613.23551 374.512 616.86051 371.48232 620.34395 Z" stroke-linecap="round"/>
</g>
		<g transform="matrix(1 0 0 1 -242.2152 186.1072)" id="eb1b09ad-1fe0-40ca-8096-34696e14e30a">
<path style="stroke: none; stroke-width: 1; stroke-dasharray: none; stroke-linecap: butt; stroke-dashoffset: 0; stroke-linejoin: miter; stroke-miterlimit: 4; is-custom-font: none; font-file-url: none; fill: rgb(230,230,230); fill-rule: nonzero; opacity: 1;" transform=" translate(-357.7848, -636.1071)" d="M 351.90747 639.98907 l 1.51427 1.72861 c 3.51621 -3.06749 6.95467 -6.304 10.24042 -9.59211 l -1.62648 -1.629 C 358.78733 633.75148 355.37844 636.943 351.90747 639.98907 Z" stroke-linecap="round"/>
</g>
		<g transform="matrix(1 0 0 1 -263.7914 203.7293)" id="eb1b09ad-1fe0-40ca-8096-34696e14e30a">
<path style="stroke: none; stroke-width: 1; stroke-dasharray: none; stroke-linecap: butt; stroke-dashoffset: 0; stroke-linejoin: miter; stroke-miterlimit: 4; is-custom-font: none; font-file-url: none; fill: rgb(230,230,230); fill-rule: nonzero; opacity: 1;" transform=" translate(-336.2087, -653.7292)" d="M 329.85451 656.77957 l 1.27021 1.92364 c 3.88265 -2.56378 7.73865 -5.29636 11.43808 -8.112 l -1.39026 -1.83593 C 337.50854 651.54757 333.69978 654.249 329.85451 656.77957 Z" stroke-linecap="round"/>
</g>
		<g transform="matrix(1 0 0 1 -285.0844 217.2779)" id="eb1b09ad-1fe0-40ca-8096-34696e14e30a">
<path style="stroke: none; stroke-width: 1; stroke-dasharray: none; stroke-linecap: butt; stroke-dashoffset: 0; stroke-linejoin: miter; stroke-miterlimit: 4; is-custom-font: none; font-file-url: none; fill: rgb(230,230,230); fill-rule: nonzero; opacity: 1;" transform=" translate(-314.9156, -667.2779)" d="M 319.16062 666.00791 c -2.78 1.57 -5.62 3.09 -8.49 4.53 v -2.58 c 2.48 -1.26 4.94 -2.59 7.35 -3.94 Z" stroke-linecap="round"/>
</g>
		<g transform="matrix(1 0 0 1 -179.998 -113.1101)" id="eb1b09ad-1fe0-40ca-8096-34696e14e30a">
<path style="stroke: none; stroke-width: 1; stroke-dasharray: none; stroke-linecap: butt; stroke-dashoffset: 0; stroke-linejoin: miter; stroke-miterlimit: 4; is-custom-font: none; font-file-url: none; fill: rgb(230,230,230); fill-rule: nonzero; opacity: 1;" transform=" translate(-420.002, -336.8899)" d="M 418.83559 333.46366 l 2.29863 -0.04178 c 0.04223 2.3211 0.04537 4.6545 0.00942 6.93606 l -2.29844 -0.03589 C 418.88015 338.06645 418.87714 335.75892 418.83559 333.46366 Z" stroke-linecap="round"/>
</g>
		<g transform="matrix(1 0 0 1 -128.6244 -24.642)" id="eb1b09ad-1fe0-40ca-8096-34696e14e30a">
<path style="stroke: none; stroke-width: 1; stroke-dasharray: none; stroke-linecap: butt; stroke-dashoffset: 0; stroke-linejoin: miter; stroke-miterlimit: 4; is-custom-font: none; font-file-url: none; fill: rgb(255,255,255); fill-rule: nonzero; opacity: 1;" transform=" translate(-376.8215, -339)" d="M 226.21644 301.63184 H 461.42653 a 65.99993 65.99993 0 0 1 65.99993 65.99993 v 8.73639 a 0 0 0 0 1 0 0 H 292.21638 a 65.99993 65.99993 0 0 1 -65.99993 -65.99993 v -8.73639 A 0 0 0 0 1 226.21644 301.63184 Z" stroke-linecap="round"/>
</g>
		<g transform="matrix(1 0 0 1 -117.1386 214.3677)" id="eb1b09ad-1fe0-40ca-8096-34696e14e30a">
<path style="stroke: none; stroke-width: 1; stroke-dasharray: none; stroke-linecap: butt; stroke-dashoffset: 0; stroke-linejoin: miter; stroke-miterlimit: 4; is-custom-font: none; font-file-url: none; fill: rgb(242,242,242); fill-rule: nonzero; opacity: 1;" transform=" translate(-482.8614, -664.3677)" d="M 476.87034 791.87943 c -0.22949 -0.375 -5.64063 -9.41016 -7.5166 -28.17188 c -1.72071 -17.21289 -0.61426 -46.22656 14.43261 -86.69824 c 28.50586 -76.6709 -6.56933 -138.5332 -6.92773 -139.14941 l 1.73047 -1.00391 c 0.09082 0.15625 9.1416 15.92871 14.48828 41.04394 a 179.06112 179.06112 0 0 1 -7.416 99.80664 c -28.457 76.54 -7.30078 112.77344 -7.084 113.13086 Z" stroke-linecap="round"/>
</g>
		<g transform="matrix(1 0 0 1 -134.2761 70.3579)" id="eb1b09ad-1fe0-40ca-8096-34696e14e30a">
<circle fill="currentColor" style="stroke: none; stroke-width: 1; stroke-dasharray: none; stroke-linecap: butt; stroke-dashoffset: 0; stroke-linejoin: miter; stroke-miterlimit: 4; is-custom-font: none; font-file-url: none; fill-rule: nonzero; opacity: 1;" cx="0" cy="0" r="13"/>
</g>
		<g transform="matrix(1 0 0 1 -93.2761 118.3579)" id="eb1b09ad-1fe0-40ca-8096-34696e14e30a">
<circle style="stroke: none; stroke-width: 1; stroke-dasharray: none; stroke-linecap: butt; stroke-dashoffset: 0; stroke-linejoin: miter; stroke-miterlimit: 4; is-custom-font: none; font-file-url: none; fill: rgb(242,242,242); fill-rule: nonzero; opacity: 1;" cx="0" cy="0" r="13"/>
</g>
		<g transform="matrix(1 0 0 1 -121.2761 150.3579)" id="eb1b09ad-1fe0-40ca-8096-34696e14e30a">
<circle fill="currentColor" style="stroke: none; stroke-width: 1; stroke-dasharray: none; stroke-linecap: butt; stroke-dashoffset: 0; stroke-linejoin: miter; stroke-miterlimit: 4; is-custom-font: none; font-file-url: none; fill-rule: nonzero; opacity: 1;" cx="0" cy="0" r="13"/>
</g>
		<g transform="matrix(1 0 0 1 -87.2761 177.3579)" id="eb1b09ad-1fe0-40ca-8096-34696e14e30a">
<circle fill="currentColor" style="stroke: none; stroke-width: 1; stroke-dasharray: none; stroke-linecap: butt; stroke-dashoffset: 0; stroke-linejoin: miter; stroke-miterlimit: 4; is-custom-font: none; font-file-url: none; fill-rule: nonzero; opacity: 1;" cx="0" cy="0" r="13"/>
</g>
		<g transform="matrix(1 0 0 1 -131.2761 219.3579)" id="eb1b09ad-1fe0-40ca-8096-34696e14e30a">
<circle style="stroke: none; stroke-width: 1; stroke-dasharray: none; stroke-linecap: butt; stroke-dashoffset: 0; stroke-linejoin: miter; stroke-miterlimit: 4; is-custom-font: none; font-file-url: none; fill: rgb(242,242,242); fill-rule: nonzero; opacity: 1;" cx="0" cy="0" r="13"/>
</g>
		<g transform="matrix(1 0 0 1 -103.3162 314.3579)" id="eb1b09ad-1fe0-40ca-8096-34696e14e30a">
<path style="stroke: none; stroke-width: 1; stroke-dasharray: none; stroke-linecap: butt; stroke-dashoffset: 0; stroke-linejoin: miter; stroke-miterlimit: 4; is-custom-font: none; font-file-url: none; fill: rgb(242,242,242); fill-rule: nonzero; opacity: 1;" transform=" translate(-496.6839, -764.3579)" d="M 484.72385 792.35794 s -13 -32 26 -56 Z" stroke-linecap="round"/>
</g>
		<g transform="matrix(1 0 0 1 -157.1183 324.9077)" id="eb1b09ad-1fe0-40ca-8096-34696e14e30a">
<path style="stroke: none; stroke-width: 1; stroke-dasharray: none; stroke-linecap: butt; stroke-dashoffset: 0; stroke-linejoin: miter; stroke-miterlimit: 4; is-custom-font: none; font-file-url: none; fill: rgb(242,242,242); fill-rule: nonzero; opacity: 1;" transform=" translate(-442.8816, -774.9077)" d="M 468.73587 791.77747 s -5.91642 -34.02934 -51.7085 -33.73768 Z" stroke-linecap="round"/>
</g>
		<g transform="matrix(1 0 0 1 -183.0194 -24.6421)" id="eb1b09ad-1fe0-40ca-8096-34696e14e30a">
<circle fill="currentColor" style="stroke: none; stroke-width: 1; stroke-dasharray: none; stroke-linecap: butt; stroke-dashoffset: 0; stroke-linejoin: miter; stroke-miterlimit: 4; is-custom-font: none; font-file-url: none; fill-rule: nonzero; opacity: 0.2;" cx="0" cy="0" r="80"/>
</g>
		<g transform="matrix(1 0 0 1 -183.0194 -24.6421)" id="eb1b09ad-1fe0-40ca-8096-34696e14e30a">
<circle fill="currentColor" style="stroke: none; stroke-width: 1; stroke-dasharray: none; stroke-linecap: butt; stroke-dashoffset: 0; stroke-linejoin: miter; stroke-miterlimit: 4; is-custom-font: none; font-file-url: none; fill-rule: nonzero; opacity: 0.2;" cx="0" cy="0" r="56.33803"/>
</g>
		<g transform="matrix(1 0 0 1 -183.0194 -24.6421)" id="eb1b09ad-1fe0-40ca-8096-34696e14e30a">
<circle fill="currentColor" style="stroke: none; stroke-width: 1; stroke-dasharray: none; stroke-linecap: butt; stroke-dashoffset: 0; stroke-linejoin: miter; stroke-miterlimit: 4; is-custom-font: none; font-file-url: none; fill-rule: nonzero; opacity: 1;" cx="0" cy="0" r="37.1831"/>
</g>
		<g transform="matrix(1 0 0 1 -183.0196 -24.7096)" id="eb1b09ad-1fe0-40ca-8096-34696e14e30a">
<path style="stroke: none; stroke-width: 1; stroke-dasharray: none; stroke-linecap: butt; stroke-dashoffset: 0; stroke-linejoin: miter; stroke-miterlimit: 4; is-custom-font: none; font-file-url: none; fill: rgb(255,255,255); fill-rule: nonzero; opacity: 1;" transform=" translate(-416.9804, -425.2904)" d="M 423.74119 417.33806 a 6.76057 6.76057 0 1 0 -11.03131 5.23894 l -2.48982 17.42883 h 13.52113 L 421.25136 422.577 A 6.74554 6.74554 0 0 0 423.74119 417.33806 Z" stroke-linecap="round"/>
</g>
		<g transform="matrix(1 0 0 1 143.3188 -244.2024)" id="eb1b09ad-1fe0-40ca-8096-34696e14e30a">
<path style="stroke: none; stroke-width: 1; stroke-dasharray: none; stroke-linecap: butt; stroke-dashoffset: 0; stroke-linejoin: miter; stroke-miterlimit: 4; is-custom-font: none; font-file-url: none; fill: rgb(47,46,65); fill-rule: nonzero; opacity: 1;" transform=" translate(-743.3188, -205.7977)" d="M 790.66145 139.658 s -22.302 -19.99486 -52.29427 17.68777 s -76.90334 56.13944 -87.66981 70.75107 c 0 0 44.60394 -18.4568 59.98461 -26.14713 s 14.61163 -6.15227 14.61163 -6.15227 s -20.7639 14.61163 -24.60907 29.22327 s -0.769 26.91616 -7.69033 41.5278 S 825.268 276.546 825.268 276.546 s 13.8426 -23.84 9.99743 -48.4491 S 833.72732 142.73416 790.66145 139.658 Z" stroke-linecap="round"/>
</g>
		<g transform="matrix(1 0 0 1 156.4567 -210.0293)" id="eb1b09ad-1fe0-40ca-8096-34696e14e30a">
<path style="stroke: none; stroke-width: 1; stroke-dasharray: none; stroke-linecap: butt; stroke-dashoffset: 0; stroke-linejoin: miter; stroke-miterlimit: 4; is-custom-font: none; font-file-url: none; fill: rgb(255,185,185); fill-rule: nonzero; opacity: 1;" transform=" translate(-756.4567, -239.9708)" d="M 748.47878 202.56005 s 4.84954 33.94676 -15.93419 41.56746 s -13.163 18.01256 -13.163 18.01256 l 31.1756 15.2414 l 33.254 -10.39186 l 11.08466 -16.627 s -18.01257 -4.15674 -13.163 -16.627 s 6.23512 -16.627 6.23512 -16.627 Z" stroke-linecap="round"/>
</g>
		<g transform="matrix(1 0 0 1 156.4567 -210.0293)" id="eb1b09ad-1fe0-40ca-8096-34696e14e30a">
<path style="stroke: none; stroke-width: 1; stroke-dasharray: none; stroke-linecap: butt; stroke-dashoffset: 0; stroke-linejoin: miter; stroke-miterlimit: 4; is-custom-font: none; font-file-url: none; fill: rgb(0,0,0); fill-rule: nonzero; opacity: 0.1;" transform=" translate(-756.4567, -239.9708)" d="M 748.47878 202.56005 s 4.84954 33.94676 -15.93419 41.56746 s -13.163 18.01256 -13.163 18.01256 l 31.1756 15.2414 l 33.254 -10.39186 l 11.08466 -16.627 s -18.01257 -4.15674 -13.163 -16.627 s 6.23512 -16.627 6.23512 -16.627 Z" stroke-linecap="round"/>
</g>
		<g transform="matrix(1 0 0 1 221.633 -40.2496)" id="eb1b09ad-1fe0-40ca-8096-34696e14e30a">
<path style="stroke: none; stroke-width: 1; stroke-dasharray: none; stroke-linecap: butt; stroke-dashoffset: 0; stroke-linejoin: miter; stroke-miterlimit: 4; is-custom-font: none; font-file-url: none; fill: rgb(255,185,185); fill-rule: nonzero; opacity: 1;" transform=" translate(-821.633, -409.7504)" d="M 835.77045 299.55078 s -4.84954 63.73677 -3.464 66.50794 s 0 99.06911 0 99.06911 s 9.69907 51.95932 -2.77116 54.73048 s -9.69908 -58.19444 -9.69908 -58.19444 L 807.366 381.30012 l 1.38558 -79.671 Z" stroke-linecap="round"/>
</g>
		<g transform="matrix(1 0 0 1 221.633 -40.2496)" id="eb1b09ad-1fe0-40ca-8096-34696e14e30a">
<path style="stroke: none; stroke-width: 1; stroke-dasharray: none; stroke-linecap: butt; stroke-dashoffset: 0; stroke-linejoin: miter; stroke-miterlimit: 4; is-custom-font: none; font-file-url: none; fill: rgb(0,0,0); fill-rule: nonzero; opacity: 0.1;" transform=" translate(-821.633, -409.7504)" d="M 835.77045 299.55078 s -4.84954 63.73677 -3.464 66.50794 s 0 99.06911 0 99.06911 s 9.69907 51.95932 -2.77116 54.73048 s -9.69908 -58.19444 -9.69908 -58.19444 L 807.366 381.30012 l 1.38558 -79.671 Z" stroke-linecap="round"/>
</g>
		<g transform="matrix(1 0 0 1 119.7203 177.9337)" id="eb1b09ad-1fe0-40ca-8096-34696e14e30a">
<path style="stroke: none; stroke-width: 1; stroke-dasharray: none; stroke-linecap: butt; stroke-dashoffset: 0; stroke-linejoin: miter; stroke-miterlimit: 4; is-custom-font: none; font-file-url: none; fill: rgb(255,185,185); fill-rule: nonzero; opacity: 1;" transform=" translate(-719.7202, -627.9337)" d="M 700.67621 491.45388 S 677.8141 578.05276 678.50689 620.313 S 688.206 721.46049 688.206 721.46049 s 1.38558 25.63326 -0.69279 28.40443 S 697.905 764.41353 697.905 764.41353 l 13.163 -7.6207 l 4.84954 -5.54233 V 746.401 s -7.6207 -23.55489 -1.38558 -42.26025 s 9.69907 -65.81514 3.464 -80.36375 l 42.953 -127.47354 Z" stroke-linecap="round"/>
</g>
		<g transform="matrix(1 0 0 1 89.4221 325.2189)" id="eb1b09ad-1fe0-40ca-8096-34696e14e30a">
<path style="stroke: none; stroke-width: 1; stroke-dasharray: none; stroke-linecap: butt; stroke-dashoffset: 0; stroke-linejoin: miter; stroke-miterlimit: 4; is-custom-font: none; font-file-url: none; fill: rgb(47,46,65); fill-rule: nonzero; opacity: 1;" transform=" translate(-689.422, -775.2189)" d="M 699.29062 753.32887 S 690.97713 742.937 685.4348 746.401 s -14.54861 27.01885 -14.54861 27.01885 s -31.17559 29.79 -9.00628 31.17559 s 31.86839 -6.23511 34.63955 -11.77744 S 724.92389 772.727 724.92389 772.727 s -2.77116 -26.32606 -6.92791 -27.01885 S 707.60412 756.1 707.60412 756.1 Z" stroke-linecap="round"/>
</g>
		<g transform="matrix(1 0 0 1 202.17 169.6202)" id="eb1b09ad-1fe0-40ca-8096-34696e14e30a">
<path style="stroke: none; stroke-width: 1; stroke-dasharray: none; stroke-linecap: butt; stroke-dashoffset: 0; stroke-linejoin: miter; stroke-miterlimit: 4; is-custom-font: none; font-file-url: none; fill: rgb(255,185,185); fill-rule: nonzero; opacity: 1;" transform=" translate(-802.1701, -619.6202)" d="M 776.19042 496.99621 v 85.90608 a 265.61649 265.61649 0 0 0 2.07837 31.1756 c 2.07838 15.2414 -11.77744 128.85912 -11.77744 128.85912 l 1.38558 20.09094 l 17.31977 -1.38559 l 2.07838 -17.31977 l 24.94047 -76.207 s 8.31349 -46.417 4.15675 -63.73677 s 21.47652 -128.16633 21.47652 -128.16633 Z" stroke-linecap="round"/>
</g>
		<g transform="matrix(1 0 0 1 184.0091 326.2499)" id="eb1b09ad-1fe0-40ca-8096-34696e14e30a">
<path style="stroke: none; stroke-width: 1; stroke-dasharray: none; stroke-linecap: butt; stroke-dashoffset: 0; stroke-linejoin: miter; stroke-miterlimit: 4; is-custom-font: none; font-file-url: none; fill: rgb(47,46,65); fill-rule: nonzero; opacity: 1;" transform=" translate(-784.0091, -776.2499)" d="M 762.3346 758.17841 l 5.13095 -1.1155 s 3.87534 -8.58357 8.72487 -6.5052 a 52.29963 52.29963 0 0 1 9.64308 5.778 l 2.13437 3.921 s 4.84954 10.39187 11.08465 17.31978 s 13.163 22.16931 2.77117 23.55489 s -24.24769 2.07837 -28.40443 -1.38558 s -1.38558 -9.00628 -5.54233 -10.39187 s -7.6207 -5.54232 -6.92791 -6.92791 S 762.3346 758.17841 762.3346 758.17841 Z" stroke-linecap="round"/>
</g>
		<g transform="matrix(1 0 0 1 176.1904 -254.3679)" id="eb1b09ad-1fe0-40ca-8096-34696e14e30a">
<circle style="stroke: none; stroke-width: 1; stroke-dasharray: none; stroke-linecap: butt; stroke-dashoffset: 0; stroke-linejoin: miter; stroke-miterlimit: 4; is-custom-font: none; font-file-url: none; fill: rgb(255,185,185); fill-rule: nonzero; opacity: 1;" cx="0" cy="0" r="30.7902"/>
</g>
		<g transform="matrix(1 0 0 1 162.681 -160.7065)" id="eb1b09ad-1fe0-40ca-8096-34696e14e30a">
<path fill="currentColor" style="stroke: none; stroke-width: 1; stroke-dasharray: none; stroke-linecap: butt; stroke-dashoffset: 0; stroke-linejoin: miter; stroke-miterlimit: 4; is-custom-font: none; font-file-url: none; fill-rule: nonzero; opacity: 1;" transform=" translate(-762.681, -289.2935)" d="M 717.996 249.66983 l 9.15108 -3.19485 s -3.60875 5.966 15.7894 9.43 s 39.48715 4.69031 48.4944 -6.66113 c 0 0 3.46492 -1.65236 8.31446 3.19718 s 7.6207 3.464 7.6207 3.464 l -3.464 18.01257 l -6.92791 33.254 L 787.96787 332.112 l -25.63327 -5.54233 L 734.623 306.47869 L 724.2311 279.45985 V 254.51937 Z" stroke-linecap="round"/>
</g>
		<g transform="matrix(1 0 0 1 158.8706 -134.8224)" id="eb1b09ad-1fe0-40ca-8096-34696e14e30a">
<path fill="currentColor" style="stroke: none; stroke-width: 1; stroke-dasharray: none; stroke-linecap: butt; stroke-dashoffset: 0; stroke-linejoin: miter; stroke-miterlimit: 4; is-custom-font: none; font-file-url: none; fill-rule: nonzero; opacity: 1;" transform=" translate(-758.8706, -315.1776)" d="M 802.51648 259.36891 l 6.92791 -4.84954 s 23.55489 4.15675 24.94047 15.2414 L 816.3723 304.40032 a 39.43662 39.43662 0 0 1 -0.69279 29.79 c -6.92791 15.9342 -6.23512 19.39815 -6.23512 19.39815 l -4.84954 20.78373 l -87.98445 6.92791 s -3.464 -8.31349 -4.84954 -9.69907 s -1.38558 -6.23512 0 -6.23512 s 0 -2.07838 -1.38558 -4.15675 s -2.07837 -2.77116 0 -5.54233 s -3.464 -27.71164 -3.464 -27.71164 V 300.93637 l -23.55489 -31.1756 s 8.31349 -12.47024 12.47024 -13.85582 s 23.93018 -6.84988 23.93018 -6.84988 l 4.47425 6.588 l 6.23512 50.14279 l 9.00628 30.48281 l 37.921 -6.4431 l 14.73113 -24.7325 l 9.69908 -29.09722 Z" stroke-linecap="round"/>
</g>
		<g transform="matrix(1 0 0 1 224.8006 -159.2713)" id="eb1b09ad-1fe0-40ca-8096-34696e14e30a">
<path fill="currentColor" style="stroke: none; stroke-width: 1; stroke-dasharray: none; stroke-linecap: butt; stroke-dashoffset: 0; stroke-linejoin: miter; stroke-miterlimit: 4; is-custom-font: none; font-file-url: none; fill-rule: nonzero; opacity: 1;" transform=" translate(-824.8006, -290.7287)" d="M 828.84254 265.604 l 5.54232 4.15674 s 4.84954 38.7963 3.464 41.56746 s -25.63327 5.54233 -26.32606 4.15675 S 828.84254 265.604 828.84254 265.604 Z" stroke-linecap="round"/>
</g>
		<g transform="matrix(1 0 0 1 174.1105 -74.1055)" id="eb1b09ad-1fe0-40ca-8096-34696e14e30a">
<path style="stroke: none; stroke-width: 1; stroke-dasharray: none; stroke-linecap: butt; stroke-dashoffset: 0; stroke-linejoin: miter; stroke-miterlimit: 4; is-custom-font: none; font-file-url: none; fill: rgb(47,46,65); fill-rule: nonzero; opacity: 1;" transform=" translate(-774.1104, -375.8944)" d="M 714.532 246.20588 l 6.9279 45.7242 s -6.23511 67.89352 -4.84953 81.74934 l 1.38558 4.15674 s -2.77116 -1.38558 -3.464 1.38559 s 0 11.77744 0 11.77744 s -4.15675 4.15675 -5.54233 27.01885 s -18.01257 77.59259 -11.77745 79.671 s 43.64583 12.47024 63.73677 10.39187 s 92.1412 -26.32606 91.44841 -32.56118 s -35.33234 -94.21957 -35.33234 -94.21957 S 810.83 370.90825 810.83 369.52267 s 8.31349 -6.92791 6.23512 -12.47024 s -13.163 -63.73676 -13.163 -63.73676 l 7.6207 -41.56746 L 801.1309 248.977 l -7.6207 40.18188 s -29.79 14.54861 -60.96561 1.38558 l -6.92791 -47.10979 Z" stroke-linecap="round"/>
</g>
		<g transform="matrix(1 0 0 1 181.9423 -271.6299)" id="eb1b09ad-1fe0-40ca-8096-34696e14e30a">
<path style="stroke: none; stroke-width: 1; stroke-dasharray: none; stroke-linecap: butt; stroke-dashoffset: 0; stroke-linejoin: miter; stroke-miterlimit: 4; is-custom-font: none; font-file-url: none; fill: rgb(47,46,65); fill-rule: nonzero; opacity: 1;" transform=" translate(-781.9423, -178.3701)" d="M 747.86436 173.53492 s 51.26654 35.33234 65.12236 19.39814 s -24.24769 -29.79 -24.24769 -29.79 l -31.86838 -3.46395 Z" stroke-linecap="round"/>
</g>
		<g transform="matrix(1 0 0 1 29.6453 118.5321)" id="eb1b09ad-1fe0-40ca-8096-34696e14e30a">
<path fill="currentColor" style="stroke: none; stroke-width: 1; stroke-dasharray: none; stroke-linecap: butt; stroke-dashoffset: 0; stroke-linejoin: miter; stroke-miterlimit: 4; is-custom-font: none; font-file-url: none; fill-rule: nonzero; opacity: 1;" transform=" translate(-629.6453, -568.532)" d="M 668.20911 549.39967 a 27.02739 27.02739 0 1 0 -8.47865 -10.5236 L 589.02369 597.748 l -9.41452 -11.17356 l -4.22986 2.82912 l -4.70726 -5.58677 l 3.86777 -3.25888 l -4.70726 -5.58677 l -6.01653 5.06935 l 2.89678 3.438 L 560.26652 588.91 l -2.89677 -3.438 l -9.45454 7.96613 l 4.34516 5.157 l 3.438 -2.89678 l 4.70726 5.58678 l -4.29752 3.621 l 8.69032 10.31405 l -10.31405 8.69032 l 10.50081 12.46281 Z m 17.65411 -39.492 A 17.88151 17.88151 0 1 1 666.52438 526.202 A 17.88156 17.88156 0 0 1 685.86322 509.90763 Z" stroke-linecap="round"/>
</g>
		<g transform="matrix(1 0 0 1 92.6443 -31.9361)" id="eb1b09ad-1fe0-40ca-8096-34696e14e30a">
<path style="stroke: none; stroke-width: 1; stroke-dasharray: none; stroke-linecap: butt; stroke-dashoffset: 0; stroke-linejoin: miter; stroke-miterlimit: 4; is-custom-font: none; font-file-url: none; fill: rgb(255,185,185); fill-rule: nonzero; opacity: 1;" transform=" translate(-692.6443, -418.0639)" d="M 678.50689 307.86428 s 4.84954 63.73677 3.464 66.50793 s 0 99.06911 0 99.06911 s -9.69907 51.95932 2.77116 54.73049 s 9.69908 -58.19445 9.69908 -58.19445 l 12.47023 -80.36375 l -1.38558 -79.671 Z" stroke-linecap="round"/>
</g>
		<g transform="matrix(1 0 0 1 93.5134 -157.9285)" id="eb1b09ad-1fe0-40ca-8096-34696e14e30a">
<path fill="currentColor" style="stroke: none; stroke-width: 1; stroke-dasharray: none; stroke-linecap: butt; stroke-dashoffset: 0; stroke-linejoin: miter; stroke-miterlimit: 4; is-custom-font: none; font-file-url: none; fill-rule: nonzero; opacity: 1;" transform=" translate(-693.5134, -292.0715)" d="M 688.89876 267.6824 l -5.54233 2.07837 s -10.39186 43.64583 -7.6207 43.64583 s 36.02513 4.15675 36.02513 2.77117 s -6.23512 -35.33234 -6.23512 -35.33234 Z" stroke-linecap="round"/>
</g>
</g>
</g>
</svg>